HIERARCHY
ROOT Hips
{
	OFFSET 0.000000 0.000000 0.000000
	CHANNELS 6 Xposition Yposition Zposition Zrotation Yrotation Xrotation 
	JOINT LHipJoint
	{
		OFFSET 0.000000 0.000000 0.000000
		CHANNELS 3 Zrotation Yrotation Xrotation
		JOINT LeftUpLeg
		{
			OFFSET 1.363060 -1.794630 0.839290
			CHANNELS 3 Zrotation Yrotation Xrotation
			JOINT LeftLeg
			{
				OFFSET 2.448110 -6.726130 0.000000
				CHANNELS 3 Zrotation Yrotation Xrotation
				JOINT LeftFoot
				{
					OFFSET 2.562200 -7.039590 0.000000
					CHANNELS 3 Zrotation Yrotation Xrotation
					JOINT LeftToeBase
					{
						OFFSET 0.157640 -0.433110 2.322550
						CHANNELS 3 Zrotation Yrotation Xrotation
						End Site
						{
							OFFSET 0.000000 0.000000 0.000000
						}
					}
				}
			}
		}
	}
	JOINT RHipJoint
	{
		OFFSET 0.000000 0.000000 0.000000
		CHANNELS 3 Zrotation Yrotation Xrotation
		JOINT RightUpLeg
		{
			OFFSET -1.305520 -1.794630 0.839290
			CHANNELS 3 Zrotation Yrotation Xrotation
			JOINT RightLeg
			{
				OFFSET -2.542530 -6.985550 0.000000
				CHANNELS 3 Zrotation Yrotation Xrotation
				JOINT RightFoot
				{
					OFFSET -2.568260 -7.056230 0.000000
					CHANNELS 3 Zrotation Yrotation Xrotation
					JOINT RightToeBase
					{
						OFFSET -0.164730 -0.452590 2.363150
						CHANNELS 3 Zrotation Yrotation Xrotation
						End Site
						{
							OFFSET 0.000000 0.000000 0.000000
						}
					}
				}
			}
		}
	}
	JOINT LowerBack
	{
		OFFSET 0.000000 0.000000 0.000000
		CHANNELS 3 Zrotation Yrotation Xrotation
		JOINT Spine
		{
			OFFSET 0.028270 2.035590 -0.193380
			CHANNELS 3 Zrotation Yrotation Xrotation
			JOINT Spine1
			{
				OFFSET 0.056720 2.048850 -0.042750
				CHANNELS 3 Zrotation Yrotation Xrotation
				JOINT Neck
				{
					OFFSET 0.000000 0.000000 0.000000
					CHANNELS 3 Zrotation Yrotation Xrotation
					JOINT Neck1
					{
						OFFSET -0.054170 1.746240 0.172020
						CHANNELS 3 Zrotation Yrotation Xrotation
						JOINT Head
						{
							OFFSET 0.104070 1.761360 -0.123970
							CHANNELS 3 Zrotation Yrotation Xrotation
							End Site
							{
								OFFSET 0.000000 0.000000 0.000000
							}
						}
					}
				}
				JOINT LeftShoulder
				{
					OFFSET 0.000000 0.000000 0.000000
					CHANNELS 3 Zrotation Yrotation Xrotation
					JOINT LeftArm
					{
						OFFSET 3.362410 1.200890 -0.311210
						CHANNELS 3 Zrotation Yrotation Xrotation
						JOINT LeftForeArm
						{
							OFFSET 4.983000 -0.000000 -0.000000
							CHANNELS 3 Zrotation Yrotation Xrotation
							JOINT LeftHand
							{
								OFFSET 3.483560 -0.000000 -0.000000
								CHANNELS 3 Zrotation Yrotation Xrotation
								JOINT LeftFingerBase
								{
									OFFSET 0.000000 0.000000 0.000000
									CHANNELS 3 Zrotation Yrotation Xrotation
									JOINT LeftHandIndex1
									{
										OFFSET 0.715260 -0.000000 -0.000000
										CHANNELS 3 Zrotation Yrotation Xrotation
										End Site
										{
											OFFSET 0.000000 0.000000 0.000000
										}
									}
								}
								JOINT LThumb
								{
									OFFSET 0.000000 0.000000 0.000000
									CHANNELS 3 Zrotation Yrotation Xrotation
									End Site
									{
										OFFSET 0.000000 0.000000 0.000000
									}
								}
							}
						}
					}
				}
				JOINT RightShoulder
				{
					OFFSET 0.000000 0.000000 0.000000
					CHANNELS 3 Zrotation Yrotation Xrotation
					JOINT RightArm
					{
						OFFSET -3.136600 1.374050 -0.404650
						CHANNELS 3 Zrotation Yrotation Xrotation
						JOINT RightForeArm
						{
							OFFSET -5.241900 -0.000000 -0.000000
							CHANNELS 3 Zrotation Yrotation Xrotation
							JOINT RightHand
							{
								OFFSET -3.444170 -0.000000 -0.000000
								CHANNELS 3 Zrotation Yrotation Xrotation
								JOINT RightFingerBase
								{
									OFFSET 0.000000 0.000000 0.000000
									CHANNELS 3 Zrotation Yrotation Xrotation
									JOINT RightHandIndex1
									{
										OFFSET -0.622530 -0.000000 -0.000000
										CHANNELS 3 Zrotation Yrotation Xrotation
										End Site
										{
											OFFSET 0.000000 0.000000 0.000000
										}
									}
								}
								JOINT RThumb
								{
									OFFSET 0.000000 0.000000 0.000000
									CHANNELS 3 Zrotation Yrotation Xrotation
									End Site
									{
										OFFSET 0.000000 0.000000 0.000000
									}
								}
							}
						}
					}
				}
			}
		}
	}
}
MOTION
Frames: 6
Frame Time: 0.008333
-4.816676 17.712673 22.655826 -1.574429 6.459105 28.656296 3.677919 -6.272761 -8.568127 -10.742224 2.622007 -43.185544 3.374124 17.027765 41.295802 0.324005 5.184892 11.241659 0.541900 -4.716400 -13.101500 -5.161144 4.458072 -7.430381 13.832956 2.334795 -43.310889 -3.386588 -18.941304 43.618796 3.875496 -12.362742 3.771809 -0.582100 4.885200 -13.581400 3.087464 2.008374 -3.387936 0.801875 2.027171 -28.651772 -2.743944 0.553916 -7.027953 -6.053456 -4.516083 -21.426109 4.799465 -4.932929 21.171333 1.072300 -2.024800 15.067400 -16.576197 -9.510208 2.668265 -63.210441 -1.555487 20.580039 132.063201 -48.258591 -98.513015 2.697708 -1.330541 28.995930 12.663581 15.346699 2.587600 -7.125000 0.000000 0.000000 -16.616800 44.910600 0.037700 17.945799 10.655665 4.113816 54.036704 4.203194 21.585380 -130.327761 45.201871 -96.614909 -1.324876 0.711263 37.226034 -7.317050 -8.516508 0.845600 7.125000 0.000000 0.000000 17.856600 -37.749200 3.315400 
-4.816901 17.711999 22.655601 -1.576450 6.465713 28.660113 3.682066 -6.272992 -8.570098 -10.739863 2.618835 -43.194445 3.377150 17.031984 41.306095 0.328837 5.174460 11.237559 0.541600 -4.715100 -13.097800 -5.164260 4.458130 -7.430943 13.838367 2.333532 -43.319846 -3.389287 -18.944447 43.628564 3.876747 -12.364147 3.762690 -0.583000 4.888900 -13.591900 3.086930 2.009293 -3.388575 0.798567 2.027527 -28.650792 -2.746884 0.554130 -7.027387 -6.040878 -4.507712 -21.418339 4.788764 -4.923975 21.178406 1.064900 -2.020500 15.068900 -16.575407 -9.510366 2.667971 -63.210282 -1.557631 20.578706 132.062965 -48.258785 -98.513007 2.698183 -1.331531 29.003438 12.672750 15.341424 2.589000 -7.125000 0.000000 0.000000 -16.607800 44.906800 0.039300 17.946326 10.655280 4.113157 54.039378 4.208619 21.580017 -130.331077 45.200347 -96.617839 -1.325379 0.712134 37.230603 -7.328358 -8.514186 0.846900 7.125000 0.000000 0.000000 17.847600 -37.748000 3.314100 
-4.817013 17.711324 22.655376 -1.577668 6.473977 28.662388 3.685952 -6.273103 -8.571824 -10.737584 2.614328 -43.202537 3.380269 17.036557 41.317398 0.334696 5.161914 11.233027 0.541100 -4.712800 -13.091300 -5.167403 4.457874 -7.431415 13.844634 2.328307 -43.328728 -3.392677 -18.947505 43.639646 3.877251 -12.364136 3.754595 -0.583400 4.890500 -13.596500 3.086003 2.008467 -3.388690 0.796708 2.026106 -28.649385 -2.749004 0.553306 -7.026954 -6.027843 -4.498472 -21.410679 4.775965 -4.913593 21.186763 1.056400 -2.015900 15.071000 -16.574336 -9.510430 2.667540 -63.211808 -1.557618 20.576028 132.060459 -48.260280 -98.511111 2.698674 -1.332631 29.010434 12.683887 15.335110 2.590900 -7.125000 0.000000 0.000000 -16.596700 44.902400 0.041100 17.946875 10.654779 4.112325 54.045086 4.212051 21.578695 -130.334700 45.198692 -96.620832 -1.325569 0.712684 37.232910 -7.334931 -8.511398 0.847500 7.125000 0.000000 0.000000 17.841900 -37.746100 3.313900 
-4.817351 17.710425 22.655039 -1.577163 6.480720 28.663875 3.689546 -6.273188 -8.573323 -10.736472 2.609597 -43.210420 3.383560 17.041224 41.329472 0.340594 5.149138 11.227996 0.539900 -4.707900 -13.077300 -5.170721 4.457627 -7.432058 13.848945 2.324281 -43.337181 -3.396491 -18.951026 43.651383 3.878540 -12.365530 3.748281 -0.584300 4.894300 -13.607300 3.083998 2.007388 -3.384389 0.793723 2.024389 -28.652125 -2.751514 0.552339 -7.033469 -6.016234 -4.488359 -21.391762 4.764475 -4.902588 21.195876 1.049100 -2.011100 15.071500 -16.573006 -9.509738 2.666665 -63.216289 -1.549409 20.573387 132.058408 -48.262750 -98.509033 2.700557 -1.335117 29.022714 12.718488 15.323032 2.597700 -7.125000 0.000000 0.000000 -16.564800 44.895600 0.043900 17.946958 10.653423 4.110981 54.055391 4.208287 21.580924 -130.332356 45.200555 -96.617914 -1.325737 0.713814 37.242028 -7.348909 -8.503096 0.848700 7.125000 0.000000 0.000000 17.829200 -37.739700 3.314200 
-4.817688 17.709526 22.654814 -1.576564 6.487178 28.664368 3.692797 -6.272883 -8.574437 -10.735797 2.605784 -43.217336 3.386921 17.045613 41.341393 0.344435 5.140172 11.222324 0.539600 -4.706700 -13.073900 -5.173812 4.457575 -7.432741 13.852784 2.321596 -43.344899 -3.400494 -18.954651 43.663815 3.879676 -12.366800 3.741631 -0.584800 4.896400 -13.613300 3.078837 2.005004 -3.381815 0.792885 2.021965 -28.652986 -2.751545 0.551130 -7.037049 -6.001821 -4.476339 -21.377983 4.750925 -4.888886 21.205700 1.040200 -2.005000 15.073100 -16.571707 -9.509120 2.665776 -63.222685 -1.542115 20.569747 132.057457 -48.264224 -98.508212 2.701492 -1.337350 29.030837 12.741448 15.307858 2.601200 -7.125000 0.000000 0.000000 -16.541500 44.884800 0.048400 17.947074 10.652426 4.109823 54.065785 4.205460 21.585507 -130.328900 45.202742 -96.614001 -1.325736 0.714411 37.250742 -7.356933 -8.497928 0.849300 7.125000 0.000000 0.000000 17.821600 -37.735600 3.314600 
-4.818138 17.708626 22.654702 -1.575488 6.492633 28.663553 3.695206 -6.272324 -8.574980 -10.736558 2.603650 -43.222630 3.390420 17.049572 41.352857 0.345948 5.135564 11.215067 0.540200 -4.709000 -13.080400 -5.176349 4.457344 -7.433151 13.855542 2.319588 -43.350534 -3.404584 -18.958093 43.676284 3.879947 -12.366318 3.735720 -0.585100 4.897700 -13.617100 3.073040 2.003762 -3.379458 0.790541 2.020396 -28.655089 -2.752277 0.550773 -7.043535 -5.985966 -4.462113 -21.353433 4.737901 -4.873148 21.212580 1.031700 -1.998100 15.070400 -16.570325 -9.507922 2.664521 -63.231742 -1.526544 20.571252 132.059690 -48.264843 -98.509213 2.702227 -1.338973 29.037437 12.759348 15.296115 2.603900 -7.125000 0.000000 0.000000 -16.523200 44.876100 0.052000 17.946976 10.650531 4.108169 54.078410 4.196213 21.590845 -130.321507 45.207447 -96.606148 -1.325580 0.714954 37.259496 -7.365101 -8.491218 0.849800 7.125000 0.000000 0.000000 17.813500 -37.729900 3.315500 
